<svg xmlns="http://www.w3.org/2000/svg" version="1.1" xmlns:xlink="http://www.w3.org/1999/xlink" xmlns:svgjs="http://svgjs.dev/svgjs" width="1440" height="560" preserveAspectRatio="none" viewBox="0 0 1440 560"><g mask="url(&quot;#SvgjsMask1000&quot;)" fill="none"><rect width="1440" height="560" x="0" y="0" fill="#0e2a47"></rect><path d="M0,388.199C72.215,385.666,97.208,284.87,158.955,247.338C223.211,208.281,331.334,233.941,364.674,166.541C397.709,99.758,320.98,28.724,302.843,-43.542C287.106,-106.247,305.939,-179.598,265.203,-229.8C224.215,-280.313,153.003,-290.401,89.857,-306.024C29.147,-321.045,-33.79,-337.041,-93.537,-318.558C-152.902,-300.193,-201.32,-256.173,-236.615,-205.028C-269.668,-157.131,-274.52,-98.217,-285.085,-40.989C-296.109,18.725,-322.114,80.435,-299.74,136.886C-277.085,194.045,-213.402,219.243,-166.286,258.746C-111.345,304.811,-71.653,390.712,0,388.199" fill="#0b2239"></path><path d="M1440 923.0160000000001C1512.378 921.413 1586.25 921.196 1649.56 886.082 1715.159 849.698 1768.98 792.692 1798.951 723.927 1828.65 655.787 1817.242 580.358 1815.194 506.055 1812.872 421.80899999999997 1830.156 331.933 1786.163 260.048 1739.6970000000001 184.122 1660.025 124.65499999999997 1572.352 109.25200000000001 1487.244 94.30000000000001 1411.026 154.61900000000003 1328.308 179.61 1246.398 204.35700000000003 1156.474 203.44600000000003 1088.508 255.43 1012.422 313.625 947.037 392.548 927.342 486.291 907.16 582.354 922.762 690.444 980.4259999999999 769.881 1035.27 845.433 1135.818 865.9839999999999 1224.3890000000001 895.4970000000001 1294.548 918.875 1366.067 924.653 1440 923.0160000000001" fill="#113255"></path></g><defs><mask id="SvgjsMask1000"><rect width="1440" height="560" fill="#ffffff"></rect></mask></defs></svg>