<svg xmlns="http://www.w3.org/2000/svg" version="1.1" xmlns:xlink="http://www.w3.org/1999/xlink" xmlns:svgjs="http://svgjs.dev/svgjs" width="1440" height="560" preserveAspectRatio="none" viewBox="0 0 1440 560"><g mask="url(&quot;#SvgjsMask1000&quot;)" fill="none"><rect width="1440" height="560" x="0" y="0" fill="#0e2a47"></rect><path d="M -631.1780098555744,123 C -535.18,194.8 -343.18,492.4 -151.17800985557437,482 C 40.82,471.6 136.82,78.6 328.8219901444256,71 C 520.82,63.4 616.82,404.8 808.8219901444256,444 C 1000.82,483.2 1162.59,298 1288.8219901444256,267 C 1415.06,236 1409.76,284.6 1440,289" stroke="rgba(51, 121, 194, 0.58)" stroke-width="2"></path><path d="M -941.0344698751817,368 C -845.03,343.6 -653.03,253.2 -461.03446987518174,246 C -269.03,238.8 -173.03,335.2 18.965530124818258,332 C 210.97,328.8 306.97,222.4 498.96553012481826,230 C 690.97,237.6 790.76,383.2 978.9655301248183,370 C 1167.17,356.8 1347.79,205.2 1440,164" stroke="rgba(51, 121, 194, 0.58)" stroke-width="2"></path><path d="M -343.7190543794152,424 C -247.72,378.6 -55.72,185 136.2809456205848,197 C 328.28,209 424.28,506.6 616.2809456205848,484 C 808.28,461.4 904.28,102.6 1096.2809456205848,84 C 1288.28,65.4 1507.54,369.4 1576.2809456205848,391 C 1645.02,412.6 1467.26,231.8 1440,192" stroke="rgba(51, 121, 194, 0.58)" stroke-width="2"></path><path d="M -400.8642733001336,236 C -304.86,281 -112.86,458.4 79.13572669986635,461 C 271.14,463.6 367.14,270.2 559.1357266998664,249 C 751.14,227.8 847.14,362.8 1039.1357266998664,355 C 1231.14,347.2 1438.96,194.4 1519.1357266998664,210 C 1599.31,225.6 1455.83,388.4 1440,433" stroke="rgba(51, 121, 194, 0.58)" stroke-width="2"></path></g><defs><mask id="SvgjsMask1000"><rect width="1440" height="560" fill="#ffffff"></rect></mask></defs></svg>